<!-- icon666.com - MILLIONS vector ICONS FREE --><svg viewBox="0 -19 480 479" xmlns="http://www.w3.org/2000/svg"><path d="m432 144.5h-160c-4.417969 0-8 3.582031-8 8v56c0 4.417969 3.582031 8 8 8h160c4.417969 0 8-3.582031 8-8v-56c0-4.417969-3.582031-8-8-8zm-8 56h-144v-40h144zm0 0"></path><path d="m304 232.5h-32c-4.417969 0-8 3.582031-8 8v32c0 4.417969 3.582031 8 8 8h32c4.417969 0 8-3.582031 8-8v-32c0-4.417969-3.582031-8-8-8zm-8 32h-16v-16h16zm0 0"></path><path d="m368 232.5h-32c-4.417969 0-8 3.582031-8 8v32c0 4.417969 3.582031 8 8 8h32c4.417969 0 8-3.582031 8-8v-32c0-4.417969-3.582031-8-8-8zm-8 32h-16v-16h16zm0 0"></path><path d="m432 232.5h-32c-4.417969 0-8 3.582031-8 8v32c0 4.417969 3.582031 8 8 8h32c4.417969 0 8-3.582031 8-8v-32c0-4.417969-3.582031-8-8-8zm-8 32h-16v-16h16zm0 0"></path><path d="m304 296.5h-32c-4.417969 0-8 3.582031-8 8v32c0 4.417969 3.582031 8 8 8h32c4.417969 0 8-3.582031 8-8v-32c0-4.417969-3.582031-8-8-8zm-8 32h-16v-16h16zm0 0"></path><path d="m368 296.5h-32c-4.417969 0-8 3.582031-8 8v32c0 4.417969 3.582031 8 8 8h32c4.417969 0 8-3.582031 8-8v-32c0-4.417969-3.582031-8-8-8zm-8 32h-16v-16h16zm0 0"></path><path d="m432 296.5h-32c-4.417969 0-8 3.582031-8 8v32c0 4.417969 3.582031 8 8 8h32c4.417969 0 8-3.582031 8-8v-32c0-4.417969-3.582031-8-8-8zm-8 32h-16v-16h16zm0 0"></path><path d="m304 360.5h-32c-4.417969 0-8 3.582031-8 8v32c0 4.417969 3.582031 8 8 8h32c4.417969 0 8-3.582031 8-8v-32c0-4.417969-3.582031-8-8-8zm-8 32h-16v-16h16zm0 0"></path><path d="m368 360.5h-32c-4.417969 0-8 3.582031-8 8v32c0 4.417969 3.582031 8 8 8h32c4.417969 0 8-3.582031 8-8v-32c0-4.417969-3.582031-8-8-8zm-8 32h-16v-16h16zm0 0"></path><path d="m432 360.5h-32c-4.417969 0-8 3.582031-8 8v32c0 4.417969 3.582031 8 8 8h32c4.417969 0 8-3.582031 8-8v-32c0-4.417969-3.582031-8-8-8zm-8 32h-16v-16h16zm0 0"></path><path d="m472 .5h-168c-26.996094.035156-51.703125 15.167969-64 39.199219-12.296875-24.03125-37.003906-39.164063-64-39.199219h-168c-4.417969 0-8 3.582031-8 8v336c0 4.417969 3.582031 8 8 8h8v24c0 4.417969 3.582031 8 8 8h180c6.617188 9.089844 16.808594 14.914062 28 16v24c0 8.835938 7.164062 16 16 16h216c8.835938 0 16-7.164062 16-16v-416c0-4.417969-3.582031-8-8-8zm-168 16h160v96h-216v-40c.035156-30.914062 25.085938-55.964844 56-56zm-288 0h160c30.914062.035156 55.964844 25.085938 56 56v264h-216zm198.648438 355.542969c-1.488282-2.214844-3.980469-3.542969-6.648438-3.542969h-176v-16h200v32c-7.265625 0-15.199219-9.238281-17.351562-12.457031zm33.351562 52.457031v-296h216v296zm0 0"></path><path d="m280 80.5h152v16h-152zm0 0"></path><path d="m384 48.5h48v16h-48zm0 0"></path><path d="m40 320.5h168c4.417969 0 8-3.582031 8-8v-144c0-4.417969-3.582031-8-8-8h-168c-4.417969 0-8 3.582031-8 8v144c0 4.417969 3.582031 8 8 8zm160-96v32h-32v-32zm-48 32h-32v-32h32zm-48 0h-56v-32h56zm-56 16h56v32h-56zm72 0h32v32h-32zm80 32h-32v-32h32zm-152-128h152v32h-152zm0 0"></path><path d="m352 48.5h16v16h-16zm0 0"></path><path d="m32 128.5h48v16h-48zm0 0"></path><path d="m32 96.5h32v16h-32zm0 0"></path><path d="m32 64.5h16v16h-16zm0 0"></path><path d="m128 120.5c-4.417969 0-8-3.582031-8-8h-16c.042969 10.132812 6.445312 19.148438 16 22.527344v9.472656h16v-9.472656c11.011719-3.878906 17.621094-15.132813 15.644531-26.640625-1.980469-11.507813-11.96875-19.910157-23.644531-19.886719-4.417969 0-8-3.582031-8-8s3.582031-8 8-8 8 3.582031 8 8h16c-.042969-10.132812-6.445312-19.148438-16-22.527344v-9.472656h-16v9.472656c-11.011719 3.878906-17.621094 15.132813-15.644531 26.640625 1.980469 11.507813 11.96875 19.910157 23.644531 19.886719 4.417969 0 8 3.582031 8 8s-3.582031 8-8 8zm0 0"></path><path d="m168 128.5h48v16h-48zm0 0"></path><path d="m184 96.5h32v16h-32zm0 0"></path><path d="m200 64.5h16v16h-16zm0 0"></path><path d="m136 400.5h16v16h-16zm0 0"></path><path d="m104 400.5h16v16h-16zm0 0"></path><path d="m168 400.5h32v16h-32zm0 0"></path></svg>